<svg width="512" height="512" viewBox="-150 -50 300 300" xmlns="http://www.w3.org/2000/svg">
  <rect x="-150" y="-50" width="300" height="300" rx="50" fill="#5da1f3" />

  <g>
    <rect x="-49.5" y="144" width="99" height="36" rx="7" fill="#534AB7" />

    <polygon points="-84,22.5 -72,22.5 -56,83 -26,144 -40,144 -54,83" fill="#534AB7" />
    <polygon points="-6,22.5 6,22.5 1,83 7,144 -7,144 -1,83" fill="#534AB7" />
    <polygon points="72,22.5 84,22.5 54,83 40,144 26,144 56,83" fill="#534AB7" />

    <rect x="-111.75" y="0" width="67.5" height="22.5" rx="5" fill="#534AB7" />
    <rect x="-33.75" y="0" width="67.5" height="22.5" rx="5" fill="#534AB7" />
    <rect x="44.25" y="0" width="67.5" height="22.5" rx="5" fill="#534AB7" />

    <text x="-18" y="167.5" text-anchor="middle" font-size="16" font-weight="700" font-family="'Courier New',Courier,monospace" fill="white">3</text>
    <line x1="-7" y1="164.5" x2="5" y2="164.5" stroke="white" stroke-width="2" stroke-linecap="round" />
    <polygon points="5,161 13,164.5 5,168" fill="white" />
    <text x="22" y="167.5" text-anchor="middle" font-size="16" font-weight="700" font-family="'Courier New',Courier,monospace" fill="white">1</text>

    <g font-family="Georgia,serif" font-size="28" font-weight="500" fill="#2E2E2E" text-anchor="middle">
      <text x="-91" y="93">T</text>
      <text x="-54.6" y="93">R</text>
      <text x="-18.2" y="93">I</text>
      <text x="18.2" y="93">A</text>
      <text x="54.6" y="93">D</text>
      <text x="91" y="93">S</text>
    </g>
  </g>
</svg>
